<svg width="40" height="40" viewBox="0 0 40 40" fill="none" xmlns="http://www.w3.org/2000/svg">
<path d="M23.2417 30.2782V21.3882M25.845 21.3882V19.1665M25.845 32.4998V30.2782M23.2417 25.8332H28.45M28.45 25.8332C29.3133 25.8332 30.0117 26.5798 30.0117 27.4998V28.6115C30.0117 29.5315 29.3117 30.2782 28.45 30.2782H21.6783M28.45 25.8332C29.3133 25.8332 30.0117 25.0865 30.0117 24.1665V23.0548C30.0117 22.1348 29.3117 21.3882 28.45 21.3882H21.6783" stroke="#FFE7B0" stroke-width="1.5" stroke-linecap="round" stroke-linejoin="round"/>
<path d="M25.8384 14.9999C22.9658 15.0008 20.2112 16.1426 18.1803 18.1741C16.1493 20.2057 15.0084 22.9607 15.0084 25.8333C14.9774 27.2749 15.2346 28.7083 15.7649 30.0493C16.2952 31.3902 17.088 32.6118 18.0966 33.6424C19.1053 34.6729 20.3095 35.4917 21.6388 36.0507C22.9681 36.6097 24.3956 36.8976 25.8376 36.8976C27.2796 36.8976 28.7071 36.6097 30.0364 36.0507C31.3657 35.4917 32.5699 34.6729 33.5786 33.6424C34.5872 32.6118 35.3799 31.3902 35.9102 30.0493C36.4405 28.7083 36.6977 27.2749 36.6668 25.8333C36.6668 19.8499 31.8184 14.9999 25.8368 14.9999M13.3418 9.99992C18.8634 9.99992 23.3384 8.50825 23.3384 6.66659C23.3384 4.82492 18.8634 3.33325 13.3418 3.33325C7.82176 3.33325 3.34509 4.82492 3.34509 6.66659C3.34509 8.50825 7.82176 9.99992 13.3418 9.99992Z" stroke="#FFE7B0" stroke-width="1.5" stroke-linecap="round" stroke-linejoin="round"/>
<path d="M3.33337 6.6665V20.0715C3.33337 21.2448 5.30004 22.7215 10.22 23.3332M3.51171 14.2465C5.52004 16.0165 9.10171 16.7665 12.9284 16.7665M23.3267 6.86817V10.2265" stroke="#FFE7B0" stroke-width="1.5" stroke-linecap="round" stroke-linejoin="round"/>
</svg>
