<svg width="40" height="40" viewBox="0 0 40 40" fill="none" xmlns="http://www.w3.org/2000/svg">
<path d="M7.16671 28.6516L5.26671 17.0999C4.98004 15.3533 4.83671 14.4799 5.29671 13.9066C5.75671 13.3333 6.60004 13.3333 8.29338 13.3333H31.7067C33.3984 13.3333 34.2434 13.3333 34.7034 13.9049C35.1634 14.4766 35.02 15.3516 34.7334 17.0983L32.8334 28.6516C32.2017 32.4816 31.8884 34.3966 30.6017 35.5316C29.315 36.6666 27.4617 36.6666 23.755 36.6666H16.245C12.5384 36.6666 10.685 36.6666 9.39838 35.5316C8.11171 34.3966 7.79671 32.4816 7.16671 28.6516Z" stroke="#FFE7B0" stroke-width="1.5" stroke-linecap="round" stroke-linejoin="round"/>
<path d="M17.3967 29.4449V20.5549M20.0001 20.5549V18.3333M20.0001 31.6666V29.4449M17.3967 24.9999H22.6034M22.6034 24.9999C23.4667 24.9999 24.1667 25.7466 24.1667 26.6666V27.7783C24.1667 28.6983 23.4667 29.4449 22.6051 29.4449H15.8334M22.6034 24.9999C23.4651 24.9999 24.1667 24.2533 24.1667 23.3333V22.2216C24.1667 21.3016 23.4667 20.5549 22.6051 20.5549H15.8334M28.3334 13.3333C28.3334 7.80992 25.8334 3.33325 20.0001 3.33325C14.1667 3.33325 11.6667 7.80992 11.6667 13.3333" stroke="#FFE7B0" stroke-width="1.5" stroke-linecap="round" stroke-linejoin="round"/>
</svg>
