<svg width="40" height="40" viewBox="0 0 40 40" fill="none" xmlns="http://www.w3.org/2000/svg">
<path d="M24.6486 15.7142C25.5011 15.7142 26.3186 16.0529 26.9214 16.6557C27.5242 17.2585 27.8629 18.076 27.8629 18.9285V27.8556C27.8629 29.9399 27.0349 31.9387 25.5611 33.4125C24.0874 34.8863 22.0885 35.7142 20.0043 35.7142C17.9201 35.7142 15.9212 34.8863 14.4474 33.4125C12.9737 31.9387 12.1457 29.9399 12.1457 27.8556V18.9285C12.1457 18.076 12.4844 17.2585 13.0872 16.6557C13.69 16.0529 14.5075 15.7142 15.36 15.7142H24.6486ZM24.6486 17.8571H15.36C15.0758 17.8571 14.8033 17.97 14.6024 18.1709C14.4015 18.3718 14.2886 18.6443 14.2886 18.9285V27.8556C14.2886 29.3715 14.8908 30.8254 15.9627 31.8973C17.0346 32.9692 18.4884 33.5714 20.0043 33.5714C21.5202 33.5714 22.974 32.9692 24.0459 31.8973C25.1178 30.8254 25.72 29.3715 25.72 27.8556V18.9285C25.72 18.6443 25.6071 18.3718 25.4062 18.1709C25.2053 17.97 24.9327 17.8571 24.6486 17.8571ZM6.07143 15.7142H12.0086C11.4349 16.3112 11.0318 17.0513 10.8414 17.8571H6.07143C5.78727 17.8571 5.51475 17.97 5.31382 18.1709C5.11289 18.3718 5.00001 18.6443 5.00001 18.9285V26.4271C4.99944 27.144 5.17874 27.8496 5.52148 28.4793C5.86422 29.109 6.35946 29.6427 6.96183 30.0314C7.56421 30.4201 8.25449 30.6516 8.96946 30.7045C9.68444 30.7574 10.4013 30.6301 11.0543 30.3342C11.2443 31.0342 11.5171 31.6999 11.86 32.3228C10.8813 32.7505 9.81138 32.9276 8.74703 32.8381C7.68267 32.7486 6.65739 32.3953 5.76383 31.8101C4.87027 31.225 4.13659 30.4264 3.6291 29.4865C3.12161 28.5467 2.85631 27.4952 2.85715 26.4271V18.9285C2.85715 18.076 3.1958 17.2585 3.79859 16.6557C4.40139 16.0529 5.21895 15.7142 6.07143 15.7142ZM33.9286 15.7142C34.7811 15.7142 35.5986 16.0529 36.2014 16.6557C36.8042 17.2585 37.1429 18.076 37.1429 18.9285V26.4285C37.1433 27.4959 36.8779 28.5466 36.3708 29.4857C35.8636 30.4249 35.1305 31.223 34.2378 31.8081C33.345 32.3931 32.3206 32.7466 31.257 32.8367C30.1935 32.9268 29.1242 32.7507 28.1457 32.3242L28.2257 32.1785C28.5314 31.5985 28.7786 30.9828 28.9557 30.3371C29.6084 30.6308 30.3243 30.7563 31.038 30.7023C31.7517 30.6482 32.4405 30.4163 33.0415 30.0276C33.6425 29.6389 34.1366 29.106 34.4787 28.4773C34.8208 27.8486 35.0001 27.1442 35 26.4285V18.9285C35 18.6446 34.8873 18.3723 34.6867 18.1714C34.4861 17.9705 34.2139 17.8575 33.93 17.8571H29.1686C28.9778 17.0511 28.5742 16.3111 28 15.7142H33.9286ZM20 4.28564C20.6566 4.28564 21.3068 4.41497 21.9134 4.66625C22.5201 4.91752 23.0712 5.28582 23.5355 5.75011C23.9998 6.2144 24.3681 6.7656 24.6194 7.37223C24.8707 7.97886 25 8.62904 25 9.28564C25 9.94225 24.8707 10.5924 24.6194 11.1991C24.3681 11.8057 23.9998 12.3569 23.5355 12.8212C23.0712 13.2855 22.5201 13.6538 21.9134 13.905C21.3068 14.1563 20.6566 14.2856 20 14.2856C18.6739 14.2856 17.4022 13.7589 16.4645 12.8212C15.5268 11.8835 15 10.6117 15 9.28564C15 7.95956 15.5268 6.68779 16.4645 5.75011C17.4022 4.81243 18.6739 4.28564 20 4.28564ZM31.4329 5.71422C31.9957 5.71422 32.553 5.82507 33.0729 6.04045C33.5929 6.25582 34.0654 6.57151 34.4633 6.96947C34.8613 7.36744 35.177 7.83989 35.3923 8.35986C35.6077 8.87983 35.7186 9.43712 35.7186 9.99993C35.7186 10.5627 35.6077 11.12 35.3923 11.64C35.177 12.16 34.8613 12.6324 34.4633 13.0304C34.0654 13.4284 33.5929 13.744 33.0729 13.9594C32.553 14.1748 31.9957 14.2856 31.4329 14.2856C30.2962 14.2856 29.2061 13.8341 28.4024 13.0304C27.5987 12.2267 27.1472 11.1366 27.1472 9.99993C27.1472 8.86329 27.5987 7.7732 28.4024 6.96947C29.2061 6.16575 30.2962 5.71422 31.4329 5.71422ZM8.56715 5.71422C9.12996 5.71422 9.68725 5.82507 10.2072 6.04045C10.7272 6.25582 11.1996 6.57151 11.5976 6.96947C11.9956 7.36744 12.3113 7.83989 12.5266 8.35986C12.742 8.87983 12.8529 9.43712 12.8529 9.99993C12.8529 10.5627 12.742 11.12 12.5266 11.64C12.3113 12.16 11.9956 12.6324 11.5976 13.0304C11.1996 13.4284 10.7272 13.744 10.2072 13.9594C9.68725 14.1748 9.12996 14.2856 8.56715 14.2856C7.43051 14.2856 6.34042 13.8341 5.53669 13.0304C4.73296 12.2267 4.28144 11.1366 4.28144 9.99993C4.28144 8.86329 4.73296 7.7732 5.53669 6.96947C6.34042 6.16575 7.43051 5.71422 8.56715 5.71422ZM20 6.4285C19.2422 6.4285 18.5155 6.72952 17.9797 7.26534C17.4439 7.80116 17.1429 8.52788 17.1429 9.28564C17.1429 10.0434 17.4439 10.7701 17.9797 11.3059C18.5155 11.8418 19.2422 12.1428 20 12.1428C20.7578 12.1428 21.4845 11.8418 22.0203 11.3059C22.5561 10.7701 22.8571 10.0434 22.8571 9.28564C22.8571 8.52788 22.5561 7.80116 22.0203 7.26534C21.4845 6.72952 20.7578 6.4285 20 6.4285ZM31.4329 7.85707C31.1515 7.85707 30.8728 7.9125 30.6128 8.02019C30.3528 8.12788 30.1166 8.28572 29.9176 8.4847C29.7187 8.68368 29.5608 8.91991 29.4531 9.17989C29.3454 9.43988 29.29 9.71853 29.29 9.99993C29.29 10.2813 29.3454 10.56 29.4531 10.82C29.5608 11.0799 29.7187 11.3162 29.9176 11.5152C30.1166 11.7141 30.3528 11.872 30.6128 11.9797C30.8728 12.0874 31.1515 12.1428 31.4329 12.1428C32.0012 12.1428 32.5462 11.917 32.9481 11.5152C33.35 11.1133 33.5757 10.5683 33.5757 9.99993C33.5757 9.43161 33.35 8.88656 32.9481 8.4847C32.5462 8.08284 32.0012 7.85707 31.4329 7.85707ZM8.56715 7.85707C8.28575 7.85707 8.0071 7.9125 7.74711 8.02019C7.48713 8.12788 7.2509 8.28572 7.05192 8.4847C6.85294 8.68368 6.6951 8.91991 6.58741 9.17989C6.47972 9.43988 6.42429 9.71853 6.42429 9.99993C6.42429 10.2813 6.47972 10.56 6.58741 10.82C6.6951 11.0799 6.85294 11.3162 7.05192 11.5152C7.2509 11.7141 7.48713 11.872 7.74711 11.9797C8.0071 12.0874 8.28575 12.1428 8.56715 12.1428C9.13547 12.1428 9.68051 11.917 10.0824 11.5152C10.4842 11.1133 10.71 10.5683 10.71 9.99993C10.71 9.43161 10.4842 8.88656 10.0824 8.4847C9.68051 8.08284 9.13547 7.85707 8.56715 7.85707Z" fill="#FFE7B0"/>
</svg>
