<svg width="40" height="40" viewBox="0 0 40 40" fill="none" xmlns="http://www.w3.org/2000/svg">
<path d="M20 19.2367C19.0403 19.2367 18.12 18.8555 17.4414 18.1769C16.7629 17.4983 16.3817 16.578 16.3817 15.6183C16.3817 14.6587 16.7629 13.7384 17.4414 13.0598C18.12 12.3812 19.0403 12 20 12C20.9598 12 21.8804 12.3813 22.5591 13.06C23.2378 13.7388 23.6192 14.6593 23.6192 15.6192C23.6192 16.579 23.2378 17.4996 22.5591 18.1783C21.8804 18.857 20.9598 19.2383 20 19.2383V24.665" stroke="#FFE7B0" stroke-width="2" stroke-linecap="round" stroke-linejoin="round"/>
<path d="M34.4533 19.8167V11.0167C34.4533 10.3415 34.2408 9.68344 33.846 9.13573C33.4511 8.58802 32.8939 8.17845 32.2533 7.96504L24.0633 5.23337C21.424 4.36492 18.5759 4.36492 15.9367 5.23337L7.74666 7.96337C7.10634 8.17669 6.54934 8.58601 6.15452 9.13338C5.75969 9.68076 5.54703 10.3385 5.54666 11.0134V19.8134C5.54697 21.9856 6.09793 24.1223 7.14808 26.0238C8.19823 27.9253 9.71328 29.5296 11.5517 30.6867L18.2983 34.9267C18.8089 35.245 19.3984 35.4137 20 35.4137C20.6016 35.4137 21.1911 35.245 21.7017 34.9267L28.4467 30.6867C30.2851 29.5299 31.8003 27.926 32.8508 26.0248C33.9012 24.1236 34.4526 21.9871 34.4533 19.815" stroke="#FFE7B0" stroke-width="2" stroke-linecap="round" stroke-linejoin="round"/>
</svg>
