<svg width="40" height="40" viewBox="0 0 40 40" fill="none" xmlns="http://www.w3.org/2000/svg">
<path d="M21.9783 29.455L25 27.6117L28.0233 29.455L27.215 25.9883L29.875 23.7217L26.3983 23.41L25 20.16L23.6033 23.41L20.125 23.7217L22.785 25.9883L21.9783 29.455ZM11.0267 23.3333V25H7.69333C6.94667 25 6.31111 24.7378 5.78667 24.2133C5.26222 23.6889 5 23.0539 5 22.3083V7.69167C5 6.94722 5.26222 6.31222 5.78667 5.78667C6.31111 5.26222 6.94667 5 7.69333 5H22.3083C23.0528 5 23.6878 5.26222 24.2133 5.78667C24.7378 6.31111 25 6.94667 25 7.69333V11.0267H23.3333V7.69333C23.3333 7.39333 23.2372 7.14722 23.045 6.955C22.8528 6.76278 22.6072 6.66667 22.3083 6.66667H7.69167C7.39278 6.66667 7.14722 6.76278 6.955 6.955C6.76278 7.14722 6.66667 7.39333 6.66667 7.69333V22.3083C6.66667 22.6072 6.76278 22.8528 6.955 23.045C7.14722 23.2372 7.39333 23.3333 7.69333 23.3333H11.0267ZM17.6933 35C16.9467 35 16.3111 34.7378 15.7867 34.2133C15.2622 33.6889 15 33.0539 15 32.3083V17.6917C15 16.9472 15.2622 16.3122 15.7867 15.7867C16.3111 15.2622 16.9467 15 17.6933 15H32.3083C33.0528 15 33.6878 15.2622 34.2133 15.7867C34.7378 16.3111 35 16.9467 35 17.6933V32.3083C35 33.0528 34.7378 33.6878 34.2133 34.2133C33.6889 34.7378 33.0539 35 32.3083 35H17.6933ZM17.6933 33.3333H32.3083C32.6072 33.3333 32.8528 33.2372 33.045 33.045C33.2372 32.8528 33.3333 32.6072 33.3333 32.3083V17.6917C33.3333 17.3928 33.2372 17.1472 33.045 16.955C32.8528 16.7628 32.6072 16.6667 32.3083 16.6667H17.6917C17.3928 16.6667 17.1472 16.7628 16.955 16.955C16.7628 17.1472 16.6667 17.3933 16.6667 17.6933V32.3083C16.6667 32.6072 16.7628 32.8528 16.955 33.045C17.1472 33.2372 17.3933 33.3333 17.6933 33.3333Z" fill="#FFE7B0"/>
</svg>
