<svg width="40" height="40" viewBox="0 0 40 40" fill="none" xmlns="http://www.w3.org/2000/svg">
<path d="M6.66669 19.9998C6.66669 13.7148 6.66669 10.5715 8.62002 8.61984C10.5734 6.66817 13.715 6.6665 20 6.6665C26.285 6.6665 29.4284 6.6665 31.38 8.61984C33.3317 10.5732 33.3334 13.7148 33.3334 19.9998C33.3334 26.2848 33.3334 29.4282 31.38 31.3798C29.4267 33.3315 26.285 33.3332 20 33.3332C13.715 33.3332 10.5717 33.3332 8.62002 31.3798C6.66835 29.4265 6.66669 26.2848 6.66669 19.9998Z" stroke="#FFE7B0" stroke-width="1.5" stroke-linecap="round" stroke-linejoin="round"/>
<path d="M16.875 24.9999V14.9999M20 14.9999V12.4999M20 27.4999V24.9999M16.875 19.9999H23.125M23.125 19.9999C24.16 19.9999 25 20.8399 25 21.8749V23.1249C25 24.1599 24.16 24.9999 23.125 24.9999H15M23.125 19.9999C24.16 19.9999 25 19.1599 25 18.1249V16.8749C25 15.8399 24.16 14.9999 23.125 14.9999H15M13.3333 3.33325V6.66659M26.6667 3.33325V6.66659M20 3.33325V6.66659M13.3333 33.3333V36.6666M20 33.3333V36.6666M26.6667 33.3333V36.6666M36.6667 26.6666H33.3333M6.66668 13.3333H3.33334M6.66668 26.6666H3.33334M6.66668 19.9999H3.33334M36.6667 13.3333H33.3333M36.6667 19.9999H33.3333" stroke="#FFE7B0" stroke-width="1.5" stroke-linecap="round" stroke-linejoin="round"/>
</svg>
