<svg width="40" height="40" viewBox="0 0 40 40" fill="none" xmlns="http://www.w3.org/2000/svg">
<path d="M31.25 25C31.25 31.9039 26.9039 36.25 20 36.25C13.0961 36.25 8.75 31.9039 8.75 25C8.75 17.5914 16.8148 7.58985 19.2883 4.69688C19.3763 4.5941 19.4855 4.51158 19.6084 4.45501C19.7314 4.39843 19.8651 4.36914 20.0004 4.36914C20.1357 4.36914 20.2694 4.39843 20.3923 4.45501C20.5153 4.51158 20.6245 4.5941 20.7125 4.69688C23.1852 7.58985 31.25 17.5914 31.25 25Z" stroke="#FFE7B0" stroke-width="2" stroke-miterlimit="10"/>
<path d="M26.875 25.625C26.875 27.1168 26.2824 28.5476 25.2275 29.6025C24.1726 30.6574 22.7418 31.25 21.25 31.25" stroke="#FFE7B0" stroke-width="2" stroke-linecap="round" stroke-linejoin="round"/>
</svg>
