<svg width="40" height="40" viewBox="0 0 40 40" fill="none" xmlns="http://www.w3.org/2000/svg">
<path d="M9.16667 17.4998C9.37 17.4998 9.56 17.4065 9.93834 17.2165L12.98 15.7032C14.3267 15.0315 15 14.6965 15 14.1665V7.49984M9.16667 17.4998C8.96334 17.4998 8.77334 17.4065 8.395 17.2165L5.35334 15.7032C4.00667 15.0315 3.33334 14.6965 3.33334 14.1665V7.49984M9.16667 17.4998V10.8332M15 7.49984C15 6.96984 14.3267 6.63317 12.98 5.96317L9.93834 4.44984C9.56 4.2615 9.37167 4.1665 9.16667 4.1665C8.96334 4.1665 8.77334 4.2615 8.395 4.44984L5.35334 5.96317C4.00667 6.63484 3.33334 6.96984 3.33334 7.49984M15 7.49984C15 8.02984 14.3267 8.3665 12.98 9.0365L9.93834 10.5498C9.56 10.7382 9.37167 10.8332 9.16667 10.8332M3.33334 7.49984C3.33334 8.02984 4.00667 8.3665 5.35334 9.0365L8.395 10.5498C8.77334 10.7382 8.96167 10.8332 9.16667 10.8332M30.8333 17.4998C31.0367 17.4998 31.2267 17.4065 31.605 17.2165L34.6467 15.7032C35.9933 15.0315 36.6667 14.6965 36.6667 14.1665V7.49984M30.8333 17.4998C30.63 17.4998 30.44 17.4065 30.0617 17.2165L27.02 15.7032C25.6733 15.0315 25 14.6965 25 14.1665V7.49984M30.8333 17.4998V10.8332M36.6667 7.49984C36.6667 6.96984 35.9933 6.63317 34.6467 5.96317L31.605 4.44984C31.2267 4.2615 31.0383 4.1665 30.8333 4.1665C30.63 4.1665 30.44 4.2615 30.0617 4.44984L27.02 5.96317C25.6733 6.63484 25 6.96984 25 7.49984M36.6667 7.49984C36.6667 8.02984 35.9933 8.3665 34.6467 9.0365L31.605 10.5498C31.2267 10.7382 31.0383 10.8332 30.8333 10.8332M25 7.49984C25 8.02984 25.6733 8.3665 27.02 9.0365L30.0617 10.5498C30.44 10.7382 30.6283 10.8332 30.8333 10.8332M19.1667 10.8332H20.8333M3.33334 20.8332V26.6665C3.33334 29.0065 3.33334 30.1782 3.895 31.0182C4.13826 31.3823 4.45088 31.6949 4.815 31.9382C5.655 32.4998 6.82667 32.4998 9.16667 32.4998M36.6667 20.8332V26.6665C36.6667 29.0065 36.6667 30.1782 36.105 31.0182C35.8617 31.3823 35.5491 31.6949 35.185 31.9382C34.345 32.4998 33.1733 32.4998 30.8333 32.4998M17.0833 28.2182C17.3744 28.2148 17.6983 28.2137 18.055 28.2148H21.945C22.3006 28.2148 22.6244 28.2159 22.9167 28.2182M17.0833 28.2182C15.8783 28.2348 15.195 28.3232 14.7367 28.7715C14.1667 29.3298 14.1667 30.2282 14.1667 32.0232C14.1667 33.8198 14.1667 34.7182 14.7367 35.2748C15.305 35.8332 16.2217 35.8332 18.055 35.8332H21.945C23.7783 35.8332 24.695 35.8332 25.2633 35.2748C25.8333 34.7182 25.8333 33.8198 25.8333 32.0248C25.8333 30.2282 25.8333 29.3298 25.2633 28.7715C24.805 28.3215 24.1217 28.2348 22.9167 28.2182M17.0833 28.2182V25.3565C17.0833 23.7782 18.39 22.4998 20 22.4998C21.61 22.4998 22.9167 23.7798 22.9167 25.3565V28.2182" stroke="#FFE4AC" stroke-width="1.5" stroke-linecap="round" stroke-linejoin="round"/>
</svg>
