<svg width="40" height="40" viewBox="0 0 40 40" fill="none" xmlns="http://www.w3.org/2000/svg">
<path d="M12.5067 20.5834C13.0234 19.5501 13.5861 18.5545 14.195 17.5968C14.805 16.639 15.4772 15.7029 16.2117 14.7884L13.6534 14.2668C13.4822 14.2234 13.3167 14.229 13.1567 14.2834C12.9967 14.3379 12.8522 14.4284 12.7234 14.5551L8.68002 18.6001C8.61557 18.6634 8.59391 18.7379 8.61502 18.8234C8.63613 18.909 8.68946 18.9734 8.77502 19.0168L12.5067 20.5834ZM31.5967 8.13175C29.0322 8.31508 26.7739 8.87897 24.8217 9.82342C22.8695 10.7679 21.0333 12.1001 19.3134 13.8201C18.0845 15.0512 17.0117 16.3334 16.095 17.6668C15.1783 19.0001 14.4228 20.3251 13.8284 21.6418L18.5467 26.3501C19.8634 25.7556 21.1933 25.0001 22.5367 24.0834C23.88 23.1668 25.1678 22.0929 26.4 20.8618C28.12 19.1418 29.4522 17.3129 30.3967 15.3751C31.3411 13.4373 31.905 11.1862 32.0884 8.62175C32.0884 8.55397 32.0833 8.4912 32.0733 8.43342C32.0633 8.37564 32.0278 8.31564 31.9667 8.25342C31.9056 8.1912 31.8456 8.15564 31.7867 8.14675C31.7278 8.13786 31.665 8.13231 31.5984 8.13008M22.6883 17.5234C22.1995 17.0334 21.955 16.4462 21.955 15.7618C21.955 15.0773 22.1995 14.4901 22.6883 14.0001C23.1772 13.5101 23.7661 13.2656 24.455 13.2668C25.1439 13.2679 25.7322 13.5123 26.22 14.0001C26.7078 14.4879 26.9522 15.0751 26.9534 15.7618C26.9545 16.4484 26.71 17.0351 26.22 17.5218C25.73 18.0084 25.1411 18.2529 24.4533 18.2551C23.7656 18.2573 23.1767 18.0129 22.6867 17.5218M19.6033 27.7017L21.1717 31.4434C21.215 31.5279 21.2789 31.5756 21.3633 31.5868C21.4478 31.5979 21.5228 31.5712 21.5883 31.5067L25.6333 27.4934C25.7611 27.3656 25.8517 27.2212 25.905 27.0601C25.9595 26.9001 25.965 26.7351 25.9217 26.5651L25.4 24.0068C24.4856 24.7423 23.5495 25.4129 22.5917 26.0184C21.6339 26.624 20.6367 27.1851 19.6033 27.7017ZM33.6833 7.88842C33.67 10.6662 33.1433 13.2284 32.1033 15.5751C31.0633 17.9218 29.5117 20.1262 27.4484 22.1884C27.3417 22.2951 27.24 22.3912 27.1433 22.4768C27.0467 22.5623 26.9456 22.6584 26.84 22.7651L27.545 26.2184C27.6339 26.6673 27.6117 27.1023 27.4783 27.5234C27.3439 27.9434 27.1139 28.3156 26.7884 28.6401L22.1467 33.2817C21.8156 33.6129 21.4117 33.7351 20.935 33.6484C20.4595 33.5629 20.1317 33.2956 19.9517 32.8468L17.955 28.1384L12.0484 22.1984L7.34002 20.2018C6.89113 20.0229 6.62724 19.6951 6.54835 19.2184C6.46946 18.7418 6.59557 18.3379 6.92668 18.0068L11.5667 13.3651C11.8911 13.0406 12.2656 12.8168 12.69 12.6934C13.1133 12.569 13.5495 12.5518 13.9984 12.6418L17.45 13.3468C17.5567 13.2401 17.6478 13.144 17.7233 13.0584C17.7978 12.9729 17.8883 12.8768 17.995 12.7701C20.0572 10.7079 22.2617 9.1512 24.6083 8.10008C26.955 7.04897 29.5178 6.51675 32.2967 6.50342C32.4756 6.51008 32.6495 6.54564 32.8183 6.61008C32.9872 6.67453 33.1445 6.78008 33.29 6.92675C33.4356 7.07342 33.5356 7.22508 33.59 7.38175C33.6445 7.53842 33.6745 7.70731 33.68 7.88842M8.52835 26.9451C9.18057 26.294 9.9728 25.9718 10.905 25.9784C11.8372 25.9851 12.6295 26.3151 13.2817 26.9684C13.9339 27.6217 14.2584 28.414 14.255 29.3451C14.2517 30.2784 13.9239 31.0706 13.2717 31.7218C12.345 32.6484 11.255 33.2318 10.0017 33.4718C8.74835 33.7106 7.48279 33.8912 6.20502 34.0134C6.32724 32.7134 6.51335 31.4423 6.76335 30.2001C7.01335 28.9579 7.60057 27.8729 8.52835 26.9451ZM9.71835 28.1567C9.22391 28.6512 8.88113 29.2317 8.69002 29.8984C8.49891 30.5651 8.35835 31.2562 8.26835 31.9718C8.98502 31.8818 9.67668 31.7373 10.3433 31.5384C11.01 31.3395 11.59 30.9934 12.0834 30.5001C12.4167 30.1667 12.5867 29.7695 12.5934 29.3084C12.5989 28.8462 12.435 28.4484 12.1017 28.1151C11.7684 27.7817 11.3711 27.6223 10.91 27.6368C10.4489 27.6501 10.0517 27.8234 9.71835 28.1567Z" fill="#FFE4AC"/>
</svg>
