<svg width="40" height="40" viewBox="0 0 40 40" fill="none" xmlns="http://www.w3.org/2000/svg">
<path d="M28.3833 22.247C29.285 21.832 29.7367 21.6253 29.8683 21.4187C30 21.2137 30 20.8853 30 20.232V19.7687C30 19.1137 30 18.787 29.8683 18.582C29.7367 18.3753 29.285 18.1687 28.3833 17.7537C27.045 17.137 26.185 15.792 26.2317 14.382C26.2667 13.3053 26.285 12.767 26.1667 12.5637C26.05 12.3587 25.7667 12.2037 25.2033 11.8937L24.665 11.5987C24.115 11.2987 23.8417 11.1487 23.6083 11.1603C23.375 11.1703 22.975 11.4403 22.18 11.9803C21.5344 12.41 20.7763 12.6392 20.0008 12.6392C19.2254 12.6392 18.4672 12.41 17.8217 11.9803C17.025 11.4403 16.6283 11.1703 16.3933 11.1587C16.16 11.1487 15.885 11.2987 15.3367 11.5987L14.7983 11.8937C14.2333 12.2037 13.9517 12.3587 13.835 12.562C13.7183 12.767 13.735 13.3053 13.7683 14.382C13.815 15.792 12.955 17.1387 11.6183 17.7537C10.715 18.1687 10.2633 18.3753 10.1317 18.582C10 18.787 10 19.1153 10 19.7687V20.232C10 20.887 10 21.2153 10.1317 21.4187C10.2633 21.6253 10.715 21.832 11.6167 22.247C12.955 22.8637 13.815 24.2087 13.7683 25.6187C13.7333 26.6953 13.715 27.2337 13.8333 27.437C13.95 27.642 14.2333 27.797 14.7983 28.107L15.335 28.402C15.885 28.702 16.1583 28.852 16.3917 28.842C16.625 28.832 17.025 28.5603 17.82 28.0203C18.4659 27.59 19.2247 27.3604 20.0008 27.3604C20.777 27.3604 21.5358 27.59 22.1817 28.0203C22.9767 28.5603 23.375 28.8303 23.61 28.8403C23.8433 28.852 24.1183 28.702 24.6667 28.402L25.2033 28.107C25.77 27.797 26.0533 27.642 26.17 27.437C26.2867 27.2337 26.2683 26.6953 26.2333 25.6187C26.1867 24.2087 27.045 22.862 28.3833 22.247Z" stroke="#FFE7B0" stroke-width="1.5" stroke-linecap="round" stroke-linejoin="round"/>
<path d="M20 22.9168C21.6108 22.9168 22.9167 21.611 22.9167 20.0002C22.9167 18.3893 21.6108 17.0835 20 17.0835C18.3892 17.0835 17.0833 18.3893 17.0833 20.0002C17.0833 21.611 18.3892 22.9168 20 22.9168Z" stroke="#FFE7B0" stroke-width="1.5" stroke-linecap="round" stroke-linejoin="round"/>
<path d="M31.6667 3.33351V8.09851C28.5543 5.0399 24.3637 3.32833 20 3.33351C10.795 3.33351 3.33333 10.7952 3.33333 20.0002C3.33183 22.2941 3.80391 24.5637 4.72 26.6668M8.33333 36.6668V31.9018C11.4457 34.9605 15.6363 36.672 20 36.6668C29.205 36.6668 36.6667 29.2052 36.6667 20.0002C36.6682 17.7062 36.1961 15.4366 35.28 13.3335" stroke="#FFE7B0" stroke-width="1.5" stroke-linecap="round" stroke-linejoin="round"/>
</svg>
